<mxfile host="app.diagrams.net" modified="2024-03-28T08:09:12.330Z" agent="Mozilla/5.0 (Windows NT 10.0; Win64; x64) AppleWebKit/537.36 (KHTML, like Gecko) Chrome/123.0.0.0 Safari/537.36" etag="2XdoADFmTGKOUdYhvrL6" version="24.2.0" type="github">
  <diagram name="第 1 页" id="Z9_tFeS7wlblLfBw258x">
    <mxGraphModel dx="1204" dy="895" grid="1" gridSize="10" guides="1" tooltips="1" connect="1" arrows="1" fold="1" page="1" pageScale="1" pageWidth="1169" pageHeight="827" math="0" shadow="0">
      <root>
        <mxCell id="0" />
        <mxCell id="1" parent="0" />
        <mxCell id="w6-Fcniiov2V3F9aukR_-1" value="" style="rounded=0;whiteSpace=wrap;html=1;" vertex="1" parent="1">
          <mxGeometry x="290" y="460" width="410" height="100" as="geometry" />
        </mxCell>
        <mxCell id="w6-Fcniiov2V3F9aukR_-2" value="" style="rounded=0;whiteSpace=wrap;html=1;" vertex="1" parent="1">
          <mxGeometry x="290" y="270" width="410" height="90" as="geometry" />
        </mxCell>
        <mxCell id="w6-Fcniiov2V3F9aukR_-3" value="" style="shape=datastore;whiteSpace=wrap;html=1;" vertex="1" parent="1">
          <mxGeometry x="790" y="100" width="90" height="90" as="geometry" />
        </mxCell>
      </root>
    </mxGraphModel>
  </diagram>
</mxfile>
